<svg width="600" height="263" viewBox="0 0 600 263" fill="none" xmlns="http://www.w3.org/2000/svg">
<g clip-path="url(#clip0)">
<path fill-rule="evenodd" clip-rule="evenodd" d="M365.426 35.375C363.745 35.375 362.484 35.5851 361.434 35.7952V36.0054H361.644C362.484 37.4762 363.745 38.7369 364.795 39.9976C365.636 41.4685 366.266 43.1494 367.107 44.6202L367.317 44.4101C368.788 43.3595 369.418 41.8887 369.418 39.5774C368.788 38.947 368.788 38.1065 368.157 37.4762C367.317 36.6357 366.056 36.0054 365.426 35.375Z" fill="#5D87A1"/>
<path d="M208.888 229.525H195.23C194.81 206.412 193.549 184.77 191.238 164.598L170.436 229.525H160.14L139.339 164.598C137.868 183.929 136.817 205.571 136.397 229.525H124C124.84 200.529 126.732 173.423 130.093 148.209H146.903L166.654 208.093H166.864L186.615 148.209H202.795C206.157 177.626 208.258 204.941 208.888 229.525Z" fill="#00758F"/>
<path d="M267.932 169.431C262.469 199.478 255.115 221.33 246.08 234.988C238.935 245.494 231.161 250.747 222.756 250.747C220.445 250.747 217.713 250.117 214.352 248.646V241.292C216.033 241.502 217.924 241.712 220.025 241.712C224.017 241.712 227.169 240.661 229.48 238.35C232.422 235.618 233.893 232.677 233.893 229.525C233.893 227.214 232.842 222.591 230.531 215.657L215.612 169.221H229.06L239.776 203.89C242.087 211.875 243.138 217.338 242.718 220.49C248.601 204.731 252.593 187.711 255.115 169.221H267.932V169.431Z" fill="#00758F"/>
<path d="M449.265 229.524H410.604V147.998H423.631V219.439H449.265V229.524Z" fill="#F29111"/>
<path fill-rule="evenodd" clip-rule="evenodd" d="M400.514 231.415L385.596 224.061C386.857 223.01 388.117 221.75 389.378 220.489C395.682 212.925 398.833 201.998 398.833 187.29C398.833 160.395 388.327 146.947 367.105 146.947C356.81 146.947 348.615 150.309 342.942 157.243C336.638 164.807 333.486 175.734 333.486 190.232C333.486 204.52 336.218 215.026 341.891 221.75C346.934 227.843 354.708 230.785 365.214 230.785C368.996 230.785 372.568 230.365 375.93 229.314L395.471 240.66L400.514 231.415ZM351.977 213.135C348.615 207.882 346.934 199.267 346.934 187.5C346.934 166.909 353.238 156.823 365.635 156.823C372.148 156.823 376.981 159.344 379.923 164.177C383.285 169.43 384.965 177.835 384.965 189.601C384.965 210.193 378.662 220.699 366.265 220.699C359.751 220.489 355.129 217.967 351.977 213.135Z" fill="#F29111"/>
<path d="M327.604 206.831C327.604 213.765 325.082 219.438 320.04 223.851C314.997 228.263 308.273 230.575 299.658 230.575C291.673 230.575 283.899 228.053 276.545 223.01L280.117 216.076C286.631 219.228 292.304 220.909 297.557 220.909C302.39 220.909 306.382 219.859 309.113 217.757C311.845 215.656 313.526 212.504 313.526 208.722C313.526 203.89 310.164 199.687 304.071 196.325C298.397 193.173 287.051 186.66 287.051 186.66C280.537 181.827 277.385 176.994 277.385 169.01C277.385 162.496 279.697 157.033 284.319 153.041C288.942 149.048 294.825 146.947 302.179 146.947C309.744 146.947 316.678 149.048 322.771 153.041L319.619 159.975C314.366 157.663 309.113 156.613 303.86 156.613C299.658 156.613 296.506 157.663 294.195 159.554C291.884 161.656 290.623 164.177 290.623 167.329C290.623 172.162 293.985 176.364 300.498 179.936C306.382 183.088 317.938 189.812 317.938 189.812C324.452 194.224 327.604 199.057 327.604 206.831Z" fill="#F29111"/>
<path fill-rule="evenodd" clip-rule="evenodd" d="M465.656 120.683C457.881 120.473 451.788 121.313 446.535 123.414C445.064 124.045 442.753 124.045 442.543 125.936C443.383 126.776 443.383 128.037 444.223 129.087C445.484 130.978 447.375 133.71 449.266 135.181C451.368 136.652 453.469 138.333 455.57 139.803C459.352 142.115 463.765 143.586 467.547 145.897C469.648 147.368 471.959 149.049 474.06 150.52C475.111 151.36 475.741 152.621 477.212 153.041V152.831C476.582 151.99 476.372 150.73 475.741 149.679C474.691 148.628 473.85 147.788 472.8 146.737C469.858 142.955 466.496 139.593 462.504 136.862C459.352 134.761 452.418 131.819 451.157 128.037C451.157 128.037 451.157 128.037 450.947 127.827C453.048 127.617 455.57 126.776 457.671 126.146C461.033 125.305 463.975 125.515 467.547 124.675C469.228 124.255 470.698 123.834 472.379 123.204V122.364C470.698 120.683 469.228 118.161 467.547 116.48C462.504 112.068 457.041 107.865 451.368 104.293C448.216 102.402 444.434 101.142 441.072 99.4606C439.811 98.8303 437.92 98.6201 437.29 97.5696C435.609 95.4684 434.558 92.5267 433.297 90.0053C430.356 84.5422 427.624 78.6588 425.313 72.9856C423.632 69.2035 422.371 65.4213 420.27 61.8493C410.184 45.0398 399.048 34.9541 382.238 25.0785C378.666 22.9773 374.254 22.1368 369.631 21.0862C367.11 21.0862 364.798 20.8761 362.277 20.666C360.596 20.0356 359.125 18.1446 357.654 17.3041C351.981 13.7321 337.693 6.16777 333.491 16.2535C330.759 22.5571 337.483 28.8606 339.584 32.2225C341.265 34.5338 343.366 37.0553 344.627 39.5767C345.257 41.2576 345.468 42.9386 346.308 44.8297C347.779 49.2422 349.25 54.0749 351.351 58.0672C352.401 60.1684 353.662 62.2695 354.923 64.1606C355.763 65.2112 357.024 65.6315 357.444 67.5225C355.973 69.4136 355.973 72.3553 355.133 74.8767C351.561 86.013 353.032 99.6707 358.075 107.865C359.546 110.387 363.328 115.64 368.371 113.749C372.783 112.068 371.732 106.395 372.993 101.562C373.203 100.301 372.993 99.6707 373.623 98.8303V99.0404C375.094 101.772 376.355 104.503 377.616 107.235C380.768 112.068 386.021 117.111 390.433 120.473C392.744 122.153 394.635 125.305 397.577 126.356V126.146H397.157C396.526 125.305 395.686 124.885 394.845 124.255C393.165 122.574 391.063 120.262 389.803 118.371C385.6 112.908 382.028 106.815 378.876 100.511C377.196 97.3594 375.935 94.2076 374.674 91.0559C374.044 89.7951 374.044 88.1142 373.203 87.4838C371.732 89.585 369.631 91.4761 368.581 94.2076C366.69 98.41 366.479 103.663 365.849 109.126C365.429 109.126 365.639 109.126 365.429 109.336C362.277 108.496 361.226 105.344 359.966 102.612C357.024 95.6785 356.604 84.332 359.125 76.3475C359.756 74.2463 362.697 67.7326 361.647 65.8416C361.016 63.9505 359.125 62.8999 358.075 61.4291C356.814 59.538 355.343 57.2267 354.503 55.1255C352.191 49.6624 350.931 43.569 348.409 38.1059C347.148 35.5844 345.257 32.8529 343.576 30.5416C341.685 27.81 339.584 25.919 338.113 22.9773C337.693 21.9267 336.853 20.0356 337.693 18.985C337.903 18.1446 338.323 17.9344 339.164 17.7243C340.425 16.6737 343.997 17.9344 345.257 18.5648C348.829 20.0356 351.981 21.5065 354.923 23.3975C356.394 24.4481 357.865 26.3392 359.546 26.7594H361.647C364.798 27.3898 368.371 26.9696 371.312 27.81C376.565 29.491 381.188 32.0124 385.39 34.5338C398.207 42.7285 408.923 54.285 416.068 68.1529C417.328 70.4642 417.748 72.5654 418.799 74.8767C420.9 79.7094 423.422 84.5422 425.523 89.3749C427.624 93.9975 429.515 98.6201 432.457 102.612C433.928 104.714 439.811 105.764 442.543 106.815C444.434 107.655 447.585 108.496 449.266 109.546C452.628 111.648 455.99 113.959 459.142 116.27C460.403 116.27 465.446 118.792 465.656 120.683Z" fill="#00758F"/>
<path d="M475.107 229.524H477.208V219.649H474.056L471.535 226.372L468.803 219.649H465.861V229.524H467.753V221.96H467.963L470.904 229.524H472.375L475.107 221.96V229.524ZM458.507 229.524H460.608V221.119H463.34V219.438H455.355V221.119H458.297V229.524H458.507Z" fill="#F29111"/>
</g>
<defs>
<clipPath id="clip0">
<rect width="353" height="239.746" fill="white" transform="translate(124 11)"/>
</clipPath>
</defs>
</svg>
